<?xml version="1.0" standalone="no"?>
<!DOCTYPE svg PUBLIC "-//W3C//DTD SVG 1.1//EN" "http://www.w3.org/Graphics/SVG/1.1/DTD/svg11.dtd" >
<svg xmlns="http://www.w3.org/2000/svg">
<metadata>
This is a custom SVG webfont generated by Font Squirrel.
Designer    : Paul Price
Foundry     : Paul Price
</metadata>
<defs>
<font id="NTGOTHICBOLDBold" horiz-adv-x="1136" >
<font-face units-per-em="2048" ascent="1516" descent="-532" />
<missing-glyph horiz-adv-x="632" />
<glyph unicode=" "  horiz-adv-x="632" />
<glyph unicode="&#x09;" horiz-adv-x="632" />
<glyph unicode="&#xa0;" horiz-adv-x="632" />
<glyph unicode="!" horiz-adv-x="612" d="M166 0v375h350v-375h-350zM166 489v1027h350v-1027h-350z" />
<glyph unicode="&#x22;" horiz-adv-x="860" d="M154 909v607h274v-607h-274zM520 909v607h275v-607h-275z" />
<glyph unicode="#" horiz-adv-x="1253" d="M59 463l35 256h199l16 112h-198l32 254h199l45 316h260l-43 -316h121l43 316h260l-43 -316h221l-35 -254h-223l-14 -112h219l-33 -256h-223l-47 -346h-260l49 346h-121l-49 -346h-260l47 346h-197zM553 719h121l16 112h-121z" />
<glyph unicode="$" horiz-adv-x="1265" d="M164 481h371q0 -66 27.5 -104.5t72.5 -38.5q43 0 69.5 30.5t26.5 71.5q0 39 -22.5 69t-60.5 54.5t-86 44t-99 37.5q-41 14 -91 41t-93 71t-73 111.5t-30 165.5q0 94 27.5 165t73 122t101.5 83t114 50v207h301v-207q119 -33 197.5 -135t74.5 -277h-338q0 53 -21.5 90 t-70.5 37q-41 0 -65.5 -28.5t-24.5 -67.5q0 -66 60.5 -102.5t195.5 -87.5q94 -37 153.5 -89.5t92 -107.5t44 -109.5t11.5 -95.5q0 -66 -19.5 -129t-57.5 -119.5t-96.5 -102.5t-135.5 -77v-209h-301v205q-86 16 -148.5 60.5t-102.5 104.5t-58.5 129.5t-18.5 137.5z" />
<glyph unicode="%" horiz-adv-x="1757" d="M74 1167v2q0 78 29.5 146.5t81 120t121 81t147.5 29.5t146.5 -29.5t119.5 -81t80.5 -121t29.5 -147.5q0 -80 -29.5 -148.5t-80.5 -119.5t-120 -81t-146 -30q-78 0 -146.5 30t-121 81t-82 119.5t-29.5 148.5zM330 1165q0 -47 35.5 -84t87.5 -37q47 0 83.5 36t36.5 89 q0 51 -35.5 86t-84.5 35q-51 0 -87 -34.5t-36 -88.5v-2zM426 0l627 1516h270l-629 -1516h-268zM926 348v2q0 78 29.5 147.5t80.5 121t121 81t148 29.5t147.5 -29.5t120.5 -82t80.5 -121t29.5 -148.5t-30.5 -148.5t-81.5 -119.5t-121 -81t-145 -30q-78 0 -146.5 30t-120 80 t-82 119.5t-30.5 149.5zM1182 346q0 -47 35.5 -84t87.5 -37q49 0 85.5 36t36.5 87q0 53 -36.5 89t-85.5 36q-53 0 -88 -37t-35 -88v-2z" />
<glyph unicode="&#x26;" horiz-adv-x="1552" d="M78 418q0 86 29.5 152.5t72.5 117.5q35 41 76 75t86 64q-72 78 -100.5 158t-28.5 160q0 86 34 158.5t91 126t135 84t166 30.5t161.5 -29.5t128 -82t84 -122t29.5 -147.5q0 -98 -39.5 -174t-109.5 -135q-12 -10 -23.5 -18.5t-21.5 -16.5l133 -135l104 221h390l-248 -465 l227 -231l-250 -246l-178 182q-18 -27 -51 -57.5t-82 -57t-115.5 -44t-150.5 -17.5q-127 0 -228.5 35t-172 94.5t-109.5 141.5t-39 178zM475 451q0 -59 45 -94t117 -35q59 0 94 20t53 43l-213 215q-35 -29 -65.5 -63.5t-30.5 -85.5zM567 1161q0 -41 21.5 -74.5t46.5 -62.5 q31 31 52.5 63.5t21.5 77.5q0 35 -17.5 55.5t-50.5 20.5h-2q-25 0 -48.5 -19.5t-23.5 -60.5z" />
<glyph unicode="'" horiz-adv-x="440" d="M121 909v607h254v-607h-254z" />
<glyph unicode="(" horiz-adv-x="882" d="M111 504q0 143 41 300t130 300t231 262t345 184v-403q-61 -27 -125.5 -82t-117 -137t-86 -189.5t-33.5 -238.5q0 -123 31.5 -226.5t81.5 -186.5t116 -140.5t133 -87.5v-406q-203 68 -345 185.5t-231 262t-130 302.5t-41 301z" />
<glyph unicode=")" horiz-adv-x="880" d="M111 -143q61 27 125.5 82t117 137t86 189.5t33.5 238.5q0 123 -31.5 226.5t-82 186t-116 140t-132.5 88.5v405q203 -68 345 -186.5t231 -263t130 -301t41 -299.5t-41 -300t-130 -300.5t-231.5 -262t-344.5 -184.5v404z" />
<glyph unicode="*" horiz-adv-x="1372" d="M285 1047l252 83l-252 76l123 221l213 -182l-62 271h254l-57 -271l209 182l122 -221l-251 -80l251 -79l-131 -230l-202 187l59 -267h-254l57 271l-200 -191z" />
<glyph unicode="+" horiz-adv-x="1228" d="M98 342v352h340v342h353v-342h339v-352h-339v-342h-353v342h-340z" />
<glyph unicode="," horiz-adv-x="552" d="M0 -164l131 512h369l-205 -512h-295z" />
<glyph unicode="-" horiz-adv-x="675" d="M0 424v334h575v-334h-575z" />
<glyph unicode="." horiz-adv-x="565" d="M145 0v348h353v-348h-353z" />
<glyph unicode="/" horiz-adv-x="1001" d="M141 -205l535 1721h397l-532 -1721h-400z" />
<glyph unicode="0" horiz-adv-x="1296" d="M82 551v414q0 166 59.5 277.5t146.5 178t186 95t179 28.5q74 0 170.5 -26.5t182.5 -93t146 -178t60 -281.5v-414q0 -160 -54 -269.5t-136 -179t-181.5 -100.5t-187.5 -31q-84 0 -183 30t-185 98.5t-144.5 179t-58.5 272.5zM492 541q0 -33 6 -69t23.5 -65.5t48 -49 t77.5 -19.5q59 0 91 26.5t46.5 60.5t16.5 67.5t2 48.5v434q0 14 -2 48t-16.5 68.5t-46 60.5t-91.5 26q-49 0 -79.5 -20.5t-47 -51.5t-22.5 -65.5t-6 -65.5v-434z" />
<glyph unicode="1" horiz-adv-x="1296" d="M330 1163v353h635v-1516h-400v1163h-235z" />
<glyph unicode="2" horiz-adv-x="1296" d="M106 944q2 49 4.5 92t12.5 88t26.5 92.5t47.5 94.5q49 76 112.5 122t129 70.5t125 32.5t100.5 8q125 0 222 -39t161.5 -105.5t98.5 -152.5t34 -178q0 -70 -11.5 -131t-40 -120.5t-76.5 -120t-120 -126.5q-59 -55 -118.5 -109t-119.5 -110h496v-352h-1069v319 q104 88 202.5 172t196.5 171q57 49 104.5 91t80 84t50 88t17.5 103q0 82 -40 116t-101 34q-41 0 -66.5 -18.5t-40 -50.5t-20.5 -75t-6 -90h-392z" />
<glyph unicode="3" horiz-adv-x="1296" d="M88 477h412q4 -18 11 -41.5t24.5 -45t45 -37t74.5 -15.5q74 0 109 42t35 107q0 47 -21.5 74t-50.5 40t-59.5 16.5t-49.5 3.5h-149v313h80q12 0 39.5 2t56.5 14.5t50.5 39t21.5 75.5q0 47 -20.5 80t-65.5 33q-82 0 -94 -80q-2 -10 -3.5 -20.5t-1.5 -28.5h-403 q4 154 56.5 245.5t129.5 149.5q78 55 167 77.5t167 22.5q111 0 199 -34.5t149.5 -93t95 -135.5t33.5 -159q0 -186 -149 -293q-6 -4 -11 -7t-12 -7q94 -39 145.5 -93t76 -107.5t28.5 -98.5t4 -63q0 -102 -45 -189.5t-121.5 -153t-179 -102.5t-215.5 -37q-66 0 -133.5 13.5 t-131 39t-117.5 66.5t-91 96q-27 39 -41 78t-24 76q-10 35 -13.5 68.5t-7.5 68.5z" />
<glyph unicode="4" horiz-adv-x="1296" d="M45 260v299l666 957h376v-926h164v-330h-164v-260h-393v260h-649zM471 590h246v389z" />
<glyph unicode="5" horiz-adv-x="1296" d="M66 430h407q29 -37 70 -64.5t94 -27.5q37 0 69.5 14.5t58.5 38t40 56t14 69.5q0 33 -12 64.5t-34.5 57.5t-57.5 41t-80 15q-51 0 -99.5 -25.5t-82.5 -105.5l-334 84l133 869h844v-353h-527l-24 -155q29 14 67.5 22t108.5 8q135 0 231.5 -50t157.5 -127t90 -167t29 -170 q0 -88 -34 -185t-104.5 -179t-180 -136.5t-263.5 -54.5q-121 0 -220 35t-173 97.5t-122 146.5t-66 182z" />
<glyph unicode="6" horiz-adv-x="1296" d="M55 561q0 117 40 218.5t98 187.5l370 549h479l-286 -394l-37 -51q10 0 20.5 1t20.5 1q84 0 170 -32.5t154.5 -97t112.5 -162t44 -228.5t-47 -237.5t-128 -183.5t-187.5 -119t-225.5 -42q-143 0 -266 53.5t-203 153.5q-70 86 -99.5 190.5t-29.5 192.5zM459 524 q0 -47 16.5 -81.5t43 -58.5t59 -35t63.5 -11q39 0 73 13.5t60.5 38t41.5 57t15 73.5q0 33 -12 67t-35.5 60.5t-59.5 43t-83 16.5q-41 0 -75 -14.5t-57.5 -39t-36.5 -57.5t-13 -70v-2z" />
<glyph unicode="7" horiz-adv-x="1296" d="M154 1163v353h987v-312l-520 -1204h-449l541 1163h-559z" />
<glyph unicode="8" horiz-adv-x="1296" d="M94 487q0 51 8.5 100.5t28 95.5t51 85t80.5 68q-43 35 -72 79q-25 35 -41 84.5t-16 114.5v2q0 78 31 155t94.5 137t160.5 98t228 38t228.5 -38t161 -98t95 -137t31.5 -157q0 -154 -106 -258q-8 -8 -25 -20q49 -29 81 -68t51.5 -85t27.5 -95t8 -101q0 -113 -41 -208 t-114.5 -163.5t-175 -106.5t-222.5 -38t-222 38t-175 106.5t-115 163.5t-41 208zM504 487q0 -27 9 -53t27.5 -47.5t45 -35t61.5 -13.5q33 0 60.5 13.5t46 35t29 49t10.5 53.5q0 55 -38 104.5t-108 49.5q-68 0 -105.5 -49t-37.5 -105v-2zM530 1081q0 -51 35 -83.5t82 -32.5 t83 32.5t36 85.5t-36 87t-83 34t-82 -33.5t-35 -87.5v-2z" />
<glyph unicode="9" horiz-adv-x="1296" d="M55 963q0 131 47.5 237.5t127 183t186 118.5t227.5 42q141 0 264 -53t205 -154q70 -86 99.5 -190.5t29.5 -192.5q0 -117 -40 -218t-99 -187l-371 -549h-477q80 113 161 223.5t163 220.5q-10 0 -21.5 -1t-21.5 -1q-84 0 -169 33t-155 97.5t-113 162t-43 228.5zM465 997 q0 -35 12 -67.5t35 -59t57.5 -43t81.5 -16.5q84 0 135.5 54.5t51.5 125.5v2q0 45 -16.5 80t-43 57.5t-60.5 35t-67 12.5q-76 0 -131 -50.5t-55 -130.5z" />
<glyph unicode=":" horiz-adv-x="577" d="M145 0v371h353v-371h-353zM145 766v371h353v-371h-353z" />
<glyph unicode=";" horiz-adv-x="632" d="M72 -164l131 533h368l-225 -533h-274zM199 764v373h364v-373h-364z" />
<glyph unicode="&#x3c;" horiz-adv-x="1228" d="M94 354v328l1041 440v-385l-639 -221l639 -217v-385z" />
<glyph unicode="=" horiz-adv-x="1228" d="M98 84v348h1032v-348h-1032zM98 604v348h1032v-348h-1032z" />
<glyph unicode="&#x3e;" horiz-adv-x="1228" d="M94 -86v385l639 221l-639 217v385l1041 -440v-328z" />
<glyph unicode="?" horiz-adv-x="1138" d="M92 1011v17q0 113 40 207t111.5 162.5t170 107.5t215.5 39q119 0 211 -40t154.5 -103.5t94 -142t31.5 -156.5q0 -72 -19.5 -130.5t-53.5 -107.5q-33 -47 -73 -87t-81 -79q-49 -45 -78 -76.5t-44 -56t-20.5 -46t-7.5 -48.5h-376q0 61 15 111.5t43 94.5t65.5 86t87.5 89 q76 74 102.5 121t26.5 88q0 49 -22.5 77.5t-76.5 28.5q-35 0 -57.5 -11t-34.5 -29.5t-17 -43t-7 -49.5q-2 -10 -3 -23v-36h-395q-2 27 -2 36zM367 0v375h378v-375h-378z" />
<glyph unicode="@" horiz-adv-x="1591" d="M2 748q0 154 56.5 297t161 255.5t253 180t332.5 67.5q160 0 294 -52t229 -143t148.5 -214t53.5 -265q0 -111 -33 -212t-89 -177.5t-131 -122t-157 -45.5q-76 0 -124 35t-74 90q-53 -72 -108.5 -98.5t-127.5 -26.5q-68 0 -127 29t-103 78t-70 117.5t-26 148.5t29 163 t82 149.5t129 109.5t168 43q68 0 116 -24.5t74 -61.5l15 61h241l-77 -456q-4 -16 -8.5 -47t-4.5 -47q-2 -23 7.5 -31t29.5 -8t46 24.5t47.5 67.5t37 104.5t15.5 134.5q0 100 -37 185.5t-103.5 146t-157.5 94t-198 33.5q-129 0 -233.5 -49t-180 -131t-116.5 -188.5 t-41 -219.5q0 -39 8 -95t30.5 -118.5t62.5 -124t103.5 -110.5t153.5 -80t213 -31q106 0 211.5 18.5t222.5 61.5l49 -219q-82 -29 -160.5 -45t-144 -23.5t-113 -8.5t-65.5 -1q-150 0 -267.5 36t-207.5 96.5t-153.5 139t-103.5 166t-58.5 175.5t-18.5 168zM608 696 q0 -43 12.5 -72.5t32 -48t43 -26.5t45.5 -8q51 0 89 32.5t61 92.5q18 51 18 122q0 27 -6 52.5t-19.5 46t-36 34t-52.5 13.5q-39 0 -73 -19.5t-59.5 -52.5t-40 -76t-14.5 -88v-2z" />
<glyph unicode="A" horiz-adv-x="1550" d="M10 0l600 1516h351l581 -1516h-452l-70 215h-494l-67 -215h-449zM631 549h280l-143 442z" />
<glyph unicode="B" horiz-adv-x="1292" d="M96 0v1516h557q233 0 367 -105q66 -51 101.5 -127t35.5 -174q0 -84 -36 -162t-113 -133q80 -35 125 -85t66.5 -101t25.5 -95.5t4 -66.5q0 -90 -36 -183.5t-106 -152.5q-53 -43 -101 -69.5t-103.5 -40t-124 -17.5t-162.5 -4h-500zM506 367h160q18 0 46.5 2t57.5 14 t47.5 36.5t18.5 72.5q0 41 -17.5 63.5t-44.5 32.5t-56.5 12t-51.5 2h-160v-235zM506 952h117q23 0 46 1t46 12q20 10 34.5 29.5t14.5 60.5q0 37 -14.5 54t-32.5 28q-23 10 -47.5 11t-46.5 1h-117v-197z" />
<glyph unicode="C" horiz-adv-x="1656" d="M68 760q0 145 54 285.5t156.5 251t250 179t333.5 68.5q178 0 315.5 -61.5t233.5 -154.5t151.5 -202.5t71.5 -205.5h-428q-16 43 -44.5 89t-71.5 83.5t-99.5 61.5t-130.5 24q-90 0 -160.5 -36t-120 -95.5t-75 -134t-25.5 -150.5q0 -82 26.5 -158t77 -135t121 -95 t158.5 -36q84 0 144.5 30.5t102.5 71.5t65.5 83t33.5 65h428q-35 -141 -107.5 -256t-174 -195t-226 -123t-262.5 -43q-178 0 -325.5 65.5t-252 175.5t-162.5 252t-58 296z" />
<glyph unicode="D" horiz-adv-x="1486" d="M104 0v1516h506q61 0 145.5 -4.5t175.5 -31t181 -84t164 -163.5q78 -111 108.5 -229.5t30.5 -241.5q0 -154 -41 -292t-133 -242.5t-239.5 -166t-362.5 -61.5h-535zM516 367h143q100 0 167 31.5t106 85t55.5 124t16.5 148.5q0 61 -14.5 133t-53.5 131q-16 25 -37.5 47.5 t-54.5 40.5t-77 29.5t-105 11.5h-146v-782z" />
<glyph unicode="E" horiz-adv-x="1009" d="M66 0v1516h981l-123 -367h-453v-197h385v-366h-385v-219h453l112 -367h-970z" />
<glyph unicode="F" horiz-adv-x="927" d="M43 0v1516h950l-121 -367h-423v-217h407v-367h-407v-565h-406z" />
<glyph unicode="G" horiz-adv-x="1734" d="M68 764q0 170 64.5 313.5t175 246.5t258 161.5t313.5 58.5q135 0 259 -43t225 -118.5t173 -177t106 -220.5h-456q-18 33 -38 58.5t-42 46.5q-45 41 -103.5 64.5t-134.5 23.5q-68 0 -136 -26t-123.5 -77t-91.5 -129t-36 -182q0 -113 36 -194t92.5 -133t125 -76.5 t135.5 -24.5q70 0 125.5 17.5t98.5 45.5q78 53 108 142h-436v336h913q2 -29 2 -62q0 -70 -9 -153q-13 -123 -62 -234q-55 -125 -142.5 -212t-188.5 -142.5t-206.5 -80t-200.5 -24.5q-172 0 -319 62.5t-255 171t-169 253t-61 308.5z" />
<glyph unicode="H" horiz-adv-x="1507" d="M137 0v1516h412v-558h446v558h412v-1516h-412v592h-446v-592h-412z" />
<glyph unicode="I" horiz-adv-x="624" d="M137 0v1516h387v-1516h-387z" />
<glyph unicode="J" horiz-adv-x="1200" d="M76 510h432q0 -23 1 -35t3 -24q6 -45 24.5 -79t67.5 -34q37 0 55.5 16.5t26.5 40.5q10 27 12 56.5t2 58.5v1006l408 -123v-789q0 -141 -12.5 -223t-36.5 -137q-25 -53 -73 -103.5t-95 -81.5q-72 -43 -149.5 -65.5t-155.5 -22.5q-8 0 -44 2t-86 13.5t-108.5 36t-111 69.5 t-93.5 114.5t-57 170.5q-4 29 -7 59.5t-3 73.5z" />
<glyph unicode="K" horiz-adv-x="1357" d="M104 0l2 1516h412l-4 -625l395 625h434l-495 -754l481 -684l-383 -158l-432 680v-600h-410z" />
<glyph unicode="L" horiz-adv-x="952" d="M80 0v1393l405 123v-1149h433v-367h-838z" />
<glyph unicode="M" horiz-adv-x="1837" d="M137 0v1516h537l266 -910l258 910h539v-1516h-383l10 1001l-289 -1001h-276l-289 1001l10 -1001h-383z" />
<glyph unicode="N" horiz-adv-x="1515" d="M137 0v1516h352l539 -861l-6 861h395v-1516h-354l-537 850l6 -850h-395z" />
<glyph unicode="O" horiz-adv-x="1734" d="M72 739v2q0 186 65.5 335t176 253.5t255 159.5t301.5 55q174 0 321.5 -63.5t254 -171t166 -251t59.5 -300.5q0 -158 -59.5 -301.5t-166 -251t-254 -171t-323.5 -63.5q-178 0 -325.5 65.5t-252 173t-161.5 246t-57 283.5zM485 760q0 -82 27 -159t78 -135t122.5 -93 t164.5 -35q96 0 167.5 39t118.5 100.5t70.5 135t23.5 143.5t-23.5 144.5t-71.5 136t-119.5 101.5t-170.5 40q-94 0 -165.5 -37t-120.5 -95.5t-75 -133t-26 -150.5v-2z" />
<glyph unicode="P" horiz-adv-x="1228" d="M82 0v1516h498q102 0 174.5 -8.5t127 -23t92.5 -34.5t68 -47q92 -74 136.5 -181.5t44.5 -224.5q0 -57 -11.5 -115.5t-33 -111.5t-51 -98t-66.5 -76q-39 -33 -80 -57.5t-92 -41t-116.5 -24.5t-151.5 -8h-132v-465h-407zM489 831h121q29 0 67 2.5t73 18.5q33 14 55 47 t22 92q0 61 -23.5 91t-58.5 46q-37 16 -76.5 18.5t-72.5 2.5h-107v-318z" />
<glyph unicode="Q" horiz-adv-x="1736" d="M47 750q0 150 55.5 292t159 253.5t250.5 180t332 68.5q184 0 333.5 -66.5t255 -175t164 -248t58.5 -284.5q0 -100 -20.5 -196.5t-69.5 -184.5q-8 -12 -14.5 -23.5t-12.5 -21.5q29 -23 72 -30t116 -7v-332q-35 -4 -59.5 -5t-50.5 -1q-74 0 -131.5 11.5t-100.5 28 t-72.5 35.5t-47.5 38q-66 -39 -124.5 -61.5t-111.5 -34t-98 -14.5t-82 -3q-184 0 -331.5 67.5t-252 178.5t-161 250.5t-56.5 284.5zM473 874q14 4 29.5 8.5t34.5 8.5q29 6 61.5 11t71.5 5q86 0 161.5 -21.5t163.5 -82.5q70 -47 118 -91t99 -100q29 63 29 158q0 94 -31.5 170 t-86 128t-126 81t-151.5 29h-2q-125 0 -221.5 -71t-139.5 -204q-2 -15 -10 -29zM516 537q25 -51 63.5 -89t83 -63t91.5 -37t90 -12h2q37 0 69.5 5t55.5 13q-31 39 -58.5 65.5t-52.5 49.5q-55 47 -114.5 65.5t-112.5 18.5q-74 0 -117 -16z" />
<glyph unicode="R" horiz-adv-x="1298" d="M82 0v1516h498q176 0 288.5 -30t178.5 -81q98 -76 142 -183.5t44 -234.5q0 -88 -21.5 -156.5t-56.5 -119.5q-35 -57 -83 -95t-97 -63l280 -492l-350 -149l-450 838h90q72 0 127 7t90 29q31 20 53.5 64.5t22.5 103.5q0 53 -22.5 94.5t-57.5 63.5q-29 18 -68 27.5t-76 9.5 h-122v-1149h-410z" />
<glyph unicode="S" horiz-adv-x="1179" d="M49 524h408q0 -68 15 -107.5t36.5 -61t44 -27.5t39.5 -6q59 0 92 39.5t33 84.5q0 25 -10.5 42.5t-40.5 37.5q-16 10 -37 20.5t-49 22.5q-29 14 -63 28.5t-77 33.5l-46 18q-26 10 -54 27q-29 16 -60.5 35.5t-62.5 44.5q-59 53 -102 129t-43 186q0 117 47 205t122.5 148.5 t171 90t189.5 29.5q76 0 165 -22.5t165 -79t127 -152.5t53 -241h-401q-4 27 -9.5 52t-19.5 48q-10 18 -31.5 31.5t-60.5 13.5q-45 0 -79 -27.5t-34 -72.5q0 -20 8.5 -35t38 -34t88 -48t160.5 -74q104 -47 172 -97t108 -103.5t56 -113t16 -126.5q0 -92 -26.5 -180t-88 -157 t-163 -112t-250.5 -43q-147 0 -252.5 42t-172.5 116t-96 175q-26 89 -26 192v28z" />
<glyph unicode="T" horiz-adv-x="1048" d="M-18 1149v367h1060l-124 -367h-242v-1149h-406v1149h-288z" />
<glyph unicode="U" horiz-adv-x="1390" d="M133 604v912h410v-912q0 -39 4 -85t20 -87t51 -67.5t99 -26.5q66 0 98.5 25.5t48.5 60.5q16 39 19.5 87t3.5 93v912h409v-912q0 -94 -10 -164.5t-29.5 -125t-47 -97.5t-64.5 -80q-74 -78 -178.5 -122t-245.5 -44q-41 0 -96.5 6.5t-115.5 23.5t-118.5 49t-105.5 85 q-47 51 -77 100.5t-46.5 103.5t-22.5 117.5t-6 147.5z" />
<glyph unicode="V" horiz-adv-x="1468" d="M27 1516h424l286 -996l289 996h426l-506 -1516h-416z" />
<glyph unicode="W" horiz-adv-x="1900" d="M29 1516h422l190 -902l205 902h319l205 -904l191 904h419l-403 -1516h-360l-213 901l-211 -901h-371z" />
<glyph unicode="X" horiz-adv-x="1560" d="M8 0l531 805l-471 711h471l243 -406l236 406h469l-465 -717l524 -799h-469l-311 508l-295 -508h-463z" />
<glyph unicode="Y" horiz-adv-x="1323" d="M8 1516h393l263 -564l254 564h399l-447 -965v-551h-411v551z" />
<glyph unicode="Z" horiz-adv-x="1064" d="M33 0v270l491 879h-491v367h956v-328l-454 -821h454v-367h-956z" />
<glyph unicode="[" horiz-adv-x="968" d="M170 -438v1954h629v-304h-285v-1347h285v-303h-629z" />
<glyph unicode="\" horiz-adv-x="1028" d="M141 1516h398l534 -1721h-399z" />
<glyph unicode="]" horiz-adv-x="899" d="M170 -135h285v1347h-285v304h629v-1954h-629v303z" />
<glyph unicode="^" horiz-adv-x="1228" d="M78 768l360 748h353l360 -748h-395l-144 401l-141 -401h-393z" />
<glyph unicode="_" horiz-adv-x="1024" d="M0 -154h1024v-102h-1024v102z" />
<glyph unicode="`" d="M262 1470l113 254l499 -258l-104 -213z" />
<glyph unicode="a" horiz-adv-x="1376" d="M23 569q0 139 47 251t124.5 191t181 122t218.5 43q117 0 192.5 -38t116.5 -85v86h365v-1141h-365v84q-53 -63 -138 -92t-171 -29q-135 0 -241.5 49t-180.5 133t-111.5 194.5t-37.5 231.5zM387 563q0 -37 14.5 -82t45 -85t79.5 -66.5t119 -26.5q84 0 135 35t80 82 q39 61 43 133q1 12 1 23q0 58 -25 114q-27 53 -82.5 98.5t-153.5 45.5q-68 0 -116 -25t-78.5 -63.5t-46 -87t-15.5 -93.5v-2z" />
<glyph unicode="b" horiz-adv-x="1267" d="M27 -4v1489l364 119v-453v-80l10 8q63 53 139 77t158 24q109 0 211.5 -41t181 -119t126 -190.5t47.5 -258.5q0 -129 -41 -239.5t-116 -193.5t-180.5 -130t-234.5 -47q-68 0 -119 11.5t-89 29.5t-64.5 39.5t-44.5 42.5v-88h-348zM373 578v-12q0 -109 73 -183 q35 -35 85.5 -56.5t107.5 -21.5q55 0 102 19.5t82 54.5t55.5 84t20.5 108v2q0 45 -16.5 92.5t-48 85t-82 61.5t-117.5 24q-111 0 -184 -74q-35 -35 -55.5 -81t-22.5 -103z" />
<glyph unicode="c" horiz-adv-x="1300" d="M35 571q0 125 46 236t127 192.5t190.5 129t236.5 47.5q113 0 213 -36t180 -101.5t135.5 -156.5t77.5 -204h-367q-29 61 -80 107t-147 49q-113 0 -178 -72q-68 -78 -68 -193q0 -57 17.5 -105t50.5 -84t78 -55.5t100 -19.5q96 0 147.5 46t79.5 102h369q-25 -104 -78 -193.5 t-131 -156t-177 -103.5t-214 -37q-129 0 -240.5 47t-192.5 130t-128 193.5t-47 237.5z" />
<glyph unicode="d" horiz-adv-x="1366" d="M27 575q0 143 48 257t127 192t180 119t210 41q84 0 159.5 -23.5t137.5 -77.5l12 -10v80v453l365 -119v-1487h-351v86q-18 -20 -43.5 -41.5t-64.5 -40t-90 -30t-119 -11.5q-129 0 -234.5 47t-180 130t-115.5 194.5t-41 240.5zM391 575q0 -61 20.5 -110t55.5 -84t82 -54.5 t102 -19.5q57 0 107.5 21.5t87.5 58.5q72 76 72 188q0 59 -22 110q-19 46 -54 81t-83 53.5t-104 18.5q-68 0 -117 -23.5t-81.5 -61.5t-49 -84t-16.5 -91v-3z" />
<glyph unicode="e" horiz-adv-x="1224" d="M16 565q0 119 44 229.5t124 194.5t189.5 135.5t238.5 51.5q131 0 241 -47.5t189 -133.5q111 -117 146 -254q21 -83 21 -178q0 -61 -9 -127h-815q16 -72 81.5 -116t151.5 -44q74 0 117 28t76 75l367 -39q-37 -76 -100.5 -149.5t-135.5 -124.5q-72 -49 -153.5 -76 t-170.5 -27q-123 0 -231 46t-191 128t-131.5 191.5t-48.5 236.5zM389 721h451q-6 20 -22.5 45t-44.5 46.5t-66.5 35.5t-92.5 14q-53 0 -92 -14t-66.5 -35.5t-44 -46.5t-22.5 -45z" />
<glyph unicode="f" horiz-adv-x="673" d="M10 860v285h121v33q0 127 34 203.5t107.5 116.5t190.5 48q52 4 113 4q76 0 167 -6l-122 -284q-31 0 -55.5 -1.5t-42 -9.5t-28 -26.5t-10.5 -51.5v-26h258l-122 -285h-136v-860h-354v860h-121z" />
<glyph unicode="g" horiz-adv-x="1347" d="M14 557q0 147 48.5 262t128 194t183 120t214.5 41q82 0 159.5 -26t133.5 -83v72h362v-996q0 -125 -11 -214t-56 -163q-33 -55 -88.5 -104t-128 -86t-162.5 -58.5t-195 -21.5q-147 0 -251.5 40t-172 102.5t-102.5 138t-45 145.5h413q27 -61 74 -85.5t109 -24.5q45 0 90 14 t81 45t58.5 79t22.5 115v15q-41 -47 -111 -86t-180 -39q-117 0 -220.5 43t-182.5 122t-125 190.5t-46 248.5zM377 567q0 -63 20.5 -112t55 -84t80 -53.5t94.5 -18.5q113 0 180 72q33 33 52.5 79t21.5 101q0 119 -68 197q-31 37 -77 58t-107 21q-49 0 -95.5 -19.5t-81 -53 t-55 -80.5t-20.5 -105v-2z" />
<glyph unicode="h" horiz-adv-x="1189" d="M57 0v1483l363 123v-441v-88q51 57 121.5 82t148.5 25q131 0 213 -44t129 -122t62.5 -175.5t15.5 -205.5v-637h-362v623q0 47 -7.5 84.5t-23.5 66.5q-18 29 -49 46.5t-80 17.5q-63 0 -96 -25t-50 -57q-16 -33 -19 -67t-3 -56v-633h-363z" />
<glyph unicode="i" horiz-adv-x="495" d="M57 0v1145h340v-1145h-340zM57 1229v287h340v-287h-340z" />
<glyph unicode="j" horiz-adv-x="544" d="M-59 -131h59q35 0 54.5 12.5t28.5 32.5t11 49t2 60v1120l353 2v-1110q0 -100 -13.5 -183t-57.5 -143.5t-125 -93.5t-216 -33h-96v287zM96 1229v287h353v-287h-353z" />
<glyph unicode="k" horiz-adv-x="1159" d="M33 0v1487l362 123v-834l285 369h436l-430 -506l412 -639h-414l-289 489v-489h-362z" />
<glyph unicode="l" horiz-adv-x="495" d="M59 0v1505l340 123v-1628h-340z" />
<glyph unicode="m" horiz-adv-x="1894" d="M45 0v1139h346v-84q57 66 133 93.5t162 27.5q59 0 130 -21.5t136 -89.5q33 -33 56 -72q16 20 32.5 40t34.5 36q53 47 123 77t162 30q31 0 68.5 -4.5t78.5 -17.5t82 -35.5t76 -59.5q41 -43 66.5 -82t39 -88t17.5 -112.5t4 -155.5v-621h-369v604q0 35 -3 74t-17 74t-44 57 t-89 22q-66 0 -97.5 -24.5t-48.5 -56.5q-16 -35 -19 -71t-3 -58v-621h-367v618q0 33 -3 66t-15 64q-16 35 -45 59t-86 24q-66 0 -99.5 -25.5t-50.5 -62.5q-16 -37 -19 -75.5t-3 -63.5v-604h-369z" />
<glyph unicode="n" horiz-adv-x="1214" d="M59 0v1139h340v-84l7 6q25 27 61 55q37 25 90 42.5t129 17.5q145 0 230 -52.5t128 -126t55.5 -154.5t12.5 -136v-707h-362v621q0 45 -6.5 83.5t-22.5 66.5t-47 44t-80 16q-55 0 -89 -17t-52.5 -47t-24.5 -69t-6 -80v-618h-363z" />
<glyph unicode="o" horiz-adv-x="1251" d="M-4 569v2q0 104 38 211t113.5 194t190.5 142.5t270 55.5q156 0 270.5 -55.5t190.5 -142.5t114 -194.5t38 -212.5q0 -104 -38 -211.5t-114 -194.5t-190.5 -142.5t-270.5 -55.5t-270.5 55.5t-190 142.5t-113.5 194.5t-38 211.5zM360 567q0 -55 20.5 -103t54.5 -83t79 -54.5 t94 -19.5t94.5 19.5t79 54.5t54 83t20.5 105t-20.5 105.5t-54 83.5t-79 54t-94.5 19t-94 -19t-79 -54t-54.5 -83t-20.5 -106v-2z" />
<glyph unicode="p" horiz-adv-x="1331" d="M49 -352v1489h350v-88q18 20 44 41.5t65 40t90 29.5t119 11q129 0 234.5 -47t180 -130t115.5 -194.5t41 -240.5q0 -145 -48 -258t-127 -189.5t-180.5 -117.5t-209.5 -41q-84 0 -160 22.5t-137 77.5l-12 8v-79v-453zM397 555q2 -57 21.5 -103t54.5 -81q74 -74 186 -74 q68 0 117 23.5t82 61.5t49.5 84t16.5 91v2q0 61 -20.5 110.5t-55.5 84t-82 54t-102 19.5q-57 0 -107.5 -21.5t-87.5 -57.5q-35 -35 -54 -84q-18 -44 -18 -98v-11z" />
<glyph unicode="q" horiz-adv-x="1361" d="M23 559q0 129 40.5 240.5t115.5 194.5t180.5 130t234.5 47q68 0 119 -11t89 -29.5t64.5 -40t44.5 -41.5v88h349v-1489l-365 -119v453v79l-10 -8q-63 -55 -139 -77.5t-158 -22.5q-109 0 -211.5 41t-181 117.5t-125.5 189.5t-47 258zM387 557q0 -45 16.5 -91t48 -84 t82 -61.5t117.5 -23.5q111 0 185 74q35 35 55 81t22 103q0 6 1 12q0 111 -74 181q-35 37 -85 58t-108 21q-55 0 -102 -19.5t-82 -54t-55.5 -83.5t-20.5 -111v-2z" />
<glyph unicode="r" horiz-adv-x="595" d="M-10 0v1139h336v-80q14 20 38.5 47t65.5 45t101 21q6 0 13 1q57 0 136 -24l-117 -336l-18 2q-22 2 -42 2q-32 0 -56 -6q-38 -10 -60 -36.5t-31.5 -68.5t-9.5 -96v-610h-356z" />
<glyph unicode="s" horiz-adv-x="1005" d="M20 360h359q6 -37 21.5 -57t34 -29.5t34.5 -11.5t20 -2q41 0 70 19.5t29 48.5q0 23 -12.5 38t-45.5 31q-35 16 -90 35t-133 47q-53 18 -102 46t-86 65t-59.5 85t-22.5 109q0 90 36 163t96 123t140 78t168 28q55 0 126 -14.5t136.5 -56.5t114.5 -117t61 -195h-354 q-2 16 -2 23t-2 13q-2 8 -10 21q-8 10 -23.5 18.5t-50.5 8.5q-45 0 -60.5 -20.5t-15.5 -37.5q0 -35 48.5 -55.5t107.5 -36.5q66 -18 136.5 -41.5t129.5 -64.5q57 -41 93 -101.5t36 -154.5q0 -96 -38 -171t-101.5 -127.5t-147 -79t-176.5 -26.5q-63 0 -139 17.5t-144.5 61.5 t-119 121.5t-62.5 198.5z" />
<glyph unicode="t" horiz-adv-x="745" d="M-51 823v314h160v379h356v-379h319l-153 -314h-166v-823h-356v823h-160z" />
<glyph unicode="u" horiz-adv-x="1206" d="M45 430v707h363v-621q0 -45 6 -83t22.5 -66.5t48 -45t80.5 -16.5q55 0 90 17.5t53.5 47t24.5 68.5t6 80v619h363v-1139h-342v84l-6 -6q-20 -27 -60 -56q-37 -25 -90 -42t-131 -17q-145 0 -230 52.5t-129 126t-56.5 154.5t-12.5 136z" />
<glyph unicode="v" horiz-adv-x="1126" d="M-10 1137h377l200 -648l201 648h377l-410 -1137h-338z" />
<glyph unicode="w" horiz-adv-x="1677" d="M-47 1137h381l158 -635l170 635h307l174 -635l155 635h379l-352 -1137h-334l-178 664l-174 -664h-334z" />
<glyph unicode="x" horiz-adv-x="1216" d="M-12 0l432 606l-385 531h438l170 -275l168 275h436l-385 -531l441 -606h-447l-213 328l-215 -328h-440z" />
<glyph unicode="y" horiz-adv-x="1155" d="M-12 1139h389l213 -686l198 686h388l-566 -1594l-340 121l133 324z" />
<glyph unicode="z" horiz-adv-x="962" d="M2 852l123 285h754v-273l-410 -579h442l-123 -285h-753v250l442 602h-475z" />
<glyph unicode="{" horiz-adv-x="1134" d="M180 287v381q23 0 55.5 3t62.5 15t51.5 35.5t21.5 64.5v435q0 78 26.5 133t71.5 91t101.5 53.5t115.5 17.5h268v-289h-125q-35 0 -53 -10.5t-28.5 -26.5t-12.5 -35.5t-2 -40.5v-422q0 -78 -40 -129t-105 -80q14 -6 38.5 -18t48 -34.5t41 -57.5t17.5 -84v-428q0 -20 2 -40 t12.5 -36t29 -26.5t52.5 -10.5h125v-289h-268q-59 0 -115.5 17.5t-101.5 53.5t-71.5 91t-26.5 133v428q0 37 -21.5 57.5t-51.5 32t-62.5 13.5t-55.5 2z" />
<glyph unicode="|" d="M381 -512v2048h375v-2048h-375z" />
<glyph unicode="}" horiz-adv-x="1134" d="M180 -252h125q33 0 52.5 10.5t29.5 26.5t12 35.5t2 40.5v428q0 72 48.5 116t105.5 68q-18 2 -44 13.5t-50.5 36t-42 65.5t-17.5 104v422q0 20 -2 40t-12 36t-29.5 26.5t-52.5 10.5h-125v289h269q59 0 115.5 -17.5t101.5 -53.5t71.5 -91.5t26.5 -132.5v-435 q0 -41 21.5 -64.5t51 -35.5t62.5 -15t55 -3v-381q-23 0 -55.5 -2t-62 -13.5t-51 -32t-21.5 -57.5v-428q0 -78 -26.5 -133t-71.5 -91t-101.5 -53.5t-115.5 -17.5h-269v289z" />
<glyph unicode="~" horiz-adv-x="1228" d="M135 584q18 35 43 67.5t57.5 59t74.5 42t96 15.5q53 0 110 -19.5t115 -41.5q29 -12 55.5 -24.5t52.5 -23.5q25 -10 47.5 -15t38.5 -5q41 0 73 24.5t54 53.5q10 12 21.5 27.5t38.5 50.5l82 -346l-29 -36q-12 -15 -27 -32q-41 -49 -92 -81t-123 -32q-59 0 -109 19.5 t-100 46.5q-47 25 -100 45t-119 20q-57 0 -95 -43t-81 -118z" />
<glyph unicode="&#xa2;" horiz-adv-x="1265" d="M125 764q0 66 19.5 139.5t61.5 141t109.5 125t163.5 90.5v215h293v-207q90 -27 156.5 -75t111.5 -107.5t69 -123t30 -120.5h-369q-23 39 -57.5 59.5t-73.5 20.5q-59 0 -106.5 -44t-47.5 -110q0 -61 44 -106.5t110 -45.5q51 0 77.5 21.5t47.5 48.5h377q-12 -63 -40 -127.5 t-72 -120t-104.5 -98.5t-140.5 -64v-213h-305v216q-109 39 -176 99t-107 127.5t-55.5 136.5t-15.5 122z" />
<glyph unicode="&#xa3;" horiz-adv-x="1265" d="M14 569v299h82q-20 39 -31.5 82t-11.5 90q0 90 37 180.5t107.5 163t172 117.5t230.5 45q111 0 207 -35.5t169 -103.5t117 -166t48 -223h-379q-4 27 -10.5 55.5t-23.5 52t-46 39t-76 15.5q-33 0 -59.5 -13.5t-45 -35t-27.5 -48t-9 -53.5q0 -78 41 -139q4 -6 9 -11.5 t9 -11.5h320v-299h-135q18 -25 32.5 -54.5t14.5 -65.5q0 -41 -15.5 -69t-38.5 -50h39q23 0 47.5 3t47.5 15t38 36t15 67q0 12 -3 27.5t-18 60.5h357q6 -23 10 -36.5t8 -29.5t6 -34.5t2 -45.5q0 -47 -21.5 -114.5t-74.5 -131.5q-51 -61 -138 -104t-218 -43h-725v330h114 q76 0 120 16t44 76q0 23 -8 44t-20 42q-12 18 -23.5 33.5t-21.5 27.5h-265z" />
<glyph unicode="&#xa5;" horiz-adv-x="1265" d="M-10 1516h438l207 -451l209 451h432l-234 -435h183v-311h-346l-45 -84v-39h391v-313h-394v-334h-403v334h-391v313h391v33l-45 90h-342v311h186z" />
<glyph unicode="&#xa8;" d="M168 1319v309h344v-309h-344zM625 1319v309h346v-309h-346z" />
<glyph unicode="&#xa9;" horiz-adv-x="1638" d="M37 758q0 160 59.5 302t165 249.5t249.5 171t312 63.5h2q162 0 304.5 -63.5t247 -171t165 -249.5t60.5 -302q0 -164 -61.5 -306.5t-168 -250t-249 -169t-304.5 -61.5t-304 62.5t-248.5 169t-168 250t-61.5 305.5zM236 758q0 -125 46 -234.5t125.5 -190.5t186 -127 t225.5 -46t225.5 46t186.5 127t126 189.5t46 235.5q0 121 -45 229.5t-123 190.5t-184.5 130t-229.5 48h-2q-123 0 -230.5 -48t-185 -129t-122.5 -189.5t-45 -231.5zM385 764q0 90 28.5 173t84 147.5t138.5 103.5t191 39q92 0 165 -30t123 -80t79 -113.5t33 -131.5h-242 q-12 45 -30.5 73t-40 42t-43 18.5t-42.5 4.5q-57 0 -95 -22.5t-60.5 -58.5t-31.5 -80t-9 -87q0 -51 11 -95t36 -77t61.5 -52.5t87.5 -19.5q8 0 30 3t46.5 19.5t49 51.5t36.5 100h244q-16 -188 -128 -290.5t-286 -102.5q-102 0 -183 36t-137.5 98.5t-86 147.5t-29.5 183z" />
<glyph unicode="&#xab;" horiz-adv-x="864" d="M20 582l201 372h266l-202 -372l202 -373h-266zM377 582l203 372h264l-201 -372l201 -373h-264z" />
<glyph unicode="&#xad;" horiz-adv-x="675" d="M0 424v334h575v-334h-575z" />
<glyph unicode="&#xae;" horiz-adv-x="1638" d="M37 758q0 158 59.5 301t165 250.5t249.5 171t312 63.5h2q162 0 304.5 -63.5t247 -171t165 -249.5t60.5 -302q0 -164 -61.5 -306.5t-168 -250t-249 -169t-304.5 -61.5t-304 62.5t-248.5 169t-168 250t-61.5 305.5zM236 758q0 -125 46 -233.5t125.5 -189.5t186 -128 t225.5 -47t225.5 46t186.5 127t126 189.5t46 235.5q0 121 -44 229.5t-123 190.5t-185.5 130t-229.5 48h-2q-123 0 -229.5 -47t-185 -129t-123.5 -190.5t-45 -231.5zM475 322v888h377q63 0 122.5 -14t105.5 -45t74 -80t28 -119q0 -51 -22.5 -107.5t-94.5 -99.5 q41 -23 68.5 -66.5t31.5 -129.5q4 -55 6.5 -88t4.5 -55q4 -20 8 -35t16 -49h-242q-10 23 -15 54.5t-9 63.5q-4 33 -6 61.5t-4 39.5q-2 16 -7.5 35.5t-18.5 36t-38.5 27.5t-71.5 11h-67v-329h-246zM721 823h86q16 0 38.5 2t42 12.5t34 33t14.5 65.5q0 35 -13.5 54.5t-32 28.5 t-37.5 10t-34 1h-98v-207z" />
<glyph unicode="&#xb4;" d="M262 1481l496 262l116 -256l-505 -219z" />
<glyph unicode="&#xb8;" d="M340 -289h174q4 -12 7 -18l5 -10q10 -25 41 -25q51 0 51 55q0 23 -13 36t-34 13q-23 0 -47 -32l-149 80l90 190h194l-51 -96h10q31 0 62 -11.5t57.5 -34t43 -59.5t16.5 -86q0 -39 -14.5 -76.5t-43 -68.5t-71.5 -50.5t-101 -19.5q-12 0 -45 5t-69.5 25.5t-69.5 63.5 t-43 119z" />
<glyph unicode="&#xbb;" horiz-adv-x="864" d="M20 209l201 373l-201 372h265l202 -372l-202 -373h-265zM377 209l203 373l-203 372h266l201 -372l-201 -373h-266z" />
<glyph unicode="&#x2c6;" d="M100 1311l361 340h227l348 -340h-362l-103 98l-104 -98h-367z" />
<glyph unicode="&#x2da;" d="M311 1487q0 53 19.5 100t54.5 82t82 55.5t102 20.5q53 0 100.5 -20.5t82 -55.5t54 -82t19.5 -100t-19.5 -100.5t-54 -82t-81.5 -55t-101 -20.5q-55 0 -102 20.5t-82 55t-54.5 82t-19.5 100.5zM500 1487q0 -29 20.5 -47.5t48.5 -18.5q29 0 48.5 19.5t19.5 48.5t-19.5 48 t-48.5 19h-2q-29 0 -48 -20t-19 -49z" />
<glyph unicode="&#x2dc;" d="M150 1546q47 25 108 49.5t129 24.5q41 0 82 -6t80 -17q39 -10 77 -16t79 -6q53 0 86.5 10t72.5 37l123 -231q-61 -37 -118.5 -57.5t-125.5 -20.5q-25 0 -69.5 7t-91.5 17t-89 16.5t-63 6.5q-47 0 -80 -12.5t-78 -36.5z" />
<glyph unicode="&#x2000;" horiz-adv-x="872" />
<glyph unicode="&#x2001;" horiz-adv-x="1744" />
<glyph unicode="&#x2002;" horiz-adv-x="872" />
<glyph unicode="&#x2003;" horiz-adv-x="1744" />
<glyph unicode="&#x2004;" horiz-adv-x="581" />
<glyph unicode="&#x2005;" horiz-adv-x="436" />
<glyph unicode="&#x2006;" horiz-adv-x="290" />
<glyph unicode="&#x2007;" horiz-adv-x="290" />
<glyph unicode="&#x2008;" horiz-adv-x="217" />
<glyph unicode="&#x2009;" horiz-adv-x="348" />
<glyph unicode="&#x200a;" horiz-adv-x="96" />
<glyph unicode="&#x2010;" horiz-adv-x="675" d="M0 424v334h575v-334h-575z" />
<glyph unicode="&#x2011;" horiz-adv-x="675" d="M0 424v334h575v-334h-575z" />
<glyph unicode="&#x2012;" horiz-adv-x="675" d="M0 424v334h575v-334h-575z" />
<glyph unicode="&#x2013;" horiz-adv-x="1024" d="M72 424v334h880v-334h-880z" />
<glyph unicode="&#x2014;" horiz-adv-x="2048" d="M72 424v334h1904v-334h-1904z" />
<glyph unicode="&#x2018;" horiz-adv-x="643" d="M82 1516h307l172 -512h-262z" />
<glyph unicode="&#x2019;" horiz-adv-x="643" d="M82 1004l172 512h307l-217 -512h-262z" />
<glyph unicode="&#x201a;" horiz-adv-x="643" d="M82 -209l172 512h307l-217 -512h-262z" />
<glyph unicode="&#x201c;" d="M139 1516h318l176 -512h-271zM504 1516h317l176 -512h-270z" />
<glyph unicode="&#x201d;" d="M139 1004l176 512h318l-223 -512h-271zM504 1004l176 512h317l-223 -512h-270z" />
<glyph unicode="&#x201e;" d="M139 -209l176 512h318l-223 -512h-271zM504 -209l176 512h317l-223 -512h-270z" />
<glyph unicode="&#x2022;" horiz-adv-x="1513" d="M444 772q0 63 24 120.5t65.5 101.5t100 70t126.5 26h2q63 0 118.5 -26t97.5 -69t66.5 -100t24.5 -123t-24.5 -124t-67.5 -101t-99.5 -67.5t-119.5 -24.5q-66 0 -123 25.5t-99 68.5t-67 100t-25 123z" />
<glyph unicode="&#x2026;" horiz-adv-x="2048" d="M166 0v348h381v-348h-381zM834 0v348h380v-348h-380zM1501 0v348h381v-348h-381z" />
<glyph unicode="&#x202f;" horiz-adv-x="348" />
<glyph unicode="&#x2039;" horiz-adv-x="454" d="M2 582l195 372h256l-195 -372l195 -373h-256z" />
<glyph unicode="&#x203a;" horiz-adv-x="454" d="M2 209l195 373l-195 372h256l195 -372l-195 -373h-256z" />
<glyph unicode="&#x205f;" horiz-adv-x="436" />
<glyph unicode="&#x20ac;" horiz-adv-x="1265" d="M29 506l43 227h129v25v28h-172l43 228h151q20 106 60.5 202.5t104 169t153.5 115.5t211 43q119 0 204.5 -42t144 -109.5t90.5 -153.5t44 -174h-358q-16 53 -49 83t-76 30q-18 0 -38 -5.5t-39.5 -21.5t-36.5 -49t-30 -88h412l-43 -228h-389v-28v-25h379l-41 -227h-316 q12 -53 28.5 -86t36 -51.5t41 -24.5t40.5 -6q33 0 66.5 20.5t56.5 100.5h358q-23 -166 -78 -260.5t-127 -145.5t-148.5 -66.5t-140.5 -15.5q-123 0 -214 41t-153.5 113t-100 169t-56.5 212h-190z" />
<glyph unicode="&#x2122;" horiz-adv-x="2027" d="M135 1274v242h651v-242h-182v-668h-287v668h-182zM868 606v910h349l165 -508l162 508h348v-910h-268v492l-145 -492h-195l-147 490v-490h-269z" />
<glyph unicode="&#xe000;" horiz-adv-x="1135" d="M0 1135h1135v-1135h-1135v1135z" />
</font>
</defs>
</svg>
